<?xml version="1.0" standalone="no"?>
<!DOCTYPE svg PUBLIC "-//W3C//DTD SVG 20010904//EN"
 "http://www.w3.org/TR/2001/REC-SVG-20010904/DTD/svg10.dtd">
<svg version="1.0" xmlns="http://www.w3.org/2000/svg"
 width="512.000000pt" height="413.000000pt" viewBox="0 0 512.000000 413.000000"
 preserveAspectRatio="xMidYMid meet">

<g transform="translate(0.000000,413.000000) scale(0.100000,-0.100000)"
fill="#D92228" stroke="none">
<path d="M2437 4071 c-31 -10 -74 -32 -95 -47 -124 -94 -2313 -1927 -2323
-1945 -24 -45 -5 -84 111 -223 115 -139 147 -163 198 -151 19 4 421 332 1131
925 l1102 919 1100 -917 c605 -504 1113 -921 1129 -926 50 -15 84 9 188 133
54 64 106 127 115 141 20 28 22 76 4 106 -7 12 -171 153 -364 314 l-353 293 0
664 0 665 -29 29 -29 29 -337 0 c-355 0 -380 -3 -401 -47 -5 -10 -11 -163 -14
-340 l-5 -323 -145 122 c-535 450 -649 542 -699 566 -74 34 -202 40 -284 13z"/>
<path d="M1929 2752 c-344 -284 -751 -621 -905 -747 l-279 -231 -3 -779 c-2
-541 0 -792 8 -818 13 -43 61 -102 101 -123 24 -12 129 -14 669 -14 l640 0 0
605 0 605 403 -2 402 -3 3 -602 2 -603 638 0 638 0 46 29 c30 19 52 44 67 73
21 44 21 47 21 839 l-1 794 -904 745 c-498 410 -909 746 -913 747 -4 1 -289
-231 -633 -515z"/>
</g>
</svg>
